<svg width="63" height="64" viewBox="0 0 63 64" fill="none" xmlns="http://www.w3.org/2000/svg">
<path fill-rule="evenodd" clip-rule="evenodd" d="M31.5001 0.504395C14.1196 0.504395 0.0307617 14.5932 0.0307617 31.9737C0.0307617 49.3542 14.1196 63.443 31.5001 63.443C48.8805 63.443 62.9694 49.3542 62.9694 31.9737C62.9694 14.5932 48.8805 0.504395 31.5001 0.504395ZM20.4858 24.1064C20.4858 22.66 20.7707 21.2277 21.3242 19.8914C21.8777 18.5551 22.689 17.3409 23.7118 16.3181C24.7346 15.2953 25.9488 14.484 27.2851 13.9305C28.6214 13.377 30.0536 13.0921 31.5001 13.0921C32.9465 13.0921 34.3787 13.377 35.715 13.9305C37.0513 14.484 38.2655 15.2953 39.2883 16.3181C40.3111 17.3409 41.1224 18.5551 41.6759 19.8914C42.2294 21.2277 42.5143 22.66 42.5143 24.1064C42.5143 27.0275 41.3539 29.829 39.2883 31.8946C37.2227 33.9602 34.4212 35.1206 31.5001 35.1206C28.5789 35.1206 25.7774 33.9602 23.7118 31.8946C21.6462 29.829 20.4858 27.0275 20.4858 24.1064ZM51.1935 47.658C48.8371 50.6203 45.8422 53.0124 42.4323 54.6558C39.0223 56.2992 35.2853 57.1515 31.5001 57.1491C27.7148 57.1515 23.9778 56.2992 20.5678 54.6558C17.1579 53.0124 14.163 50.6203 11.8066 47.658C16.9077 43.9981 23.8688 41.4145 31.5001 41.4145C39.1314 41.4145 46.0924 43.9981 51.1935 47.658Z" fill="#F17046"/>
</svg>
