<svg width="32" height="28" viewBox="0 0 32 28" fill="none" xmlns="http://www.w3.org/2000/svg">
<path d="M22.3333 27.25L21.8583 24.875C21.5417 24.7431 21.245 24.6048 20.9685 24.4602C20.6919 24.3156 20.408 24.1372 20.1167 23.925L17.8208 24.6375L16.2375 21.9459L18.0583 20.3625C18.0055 19.9931 17.9792 19.65 17.9792 19.3334C17.9792 19.0167 18.0055 18.6737 18.0583 18.3042L16.2375 16.7209L17.8208 14.0292L20.1167 14.7417C20.4069 14.5306 20.6909 14.3527 20.9685 14.2081C21.2461 14.0635 21.5427 13.9247 21.8583 13.7917L22.3333 11.4167H25.5L25.975 13.7917C26.2917 13.9237 26.5888 14.0688 26.8664 14.2271C27.144 14.3855 27.4274 14.5834 27.7167 14.8209L30.0125 14.0292L31.5958 16.8L29.775 18.3834C29.8278 18.7 29.8542 19.0299 29.8542 19.373C29.8542 19.716 29.8278 20.0459 29.775 20.3625L31.5958 21.9459L30.0125 24.6375L27.7167 23.925C27.4264 24.1362 27.143 24.3145 26.8664 24.4602C26.5899 24.6059 26.2927 24.7442 25.975 24.875L25.5 27.25H22.3333ZM0.166656 25.6667V21.2334C0.166656 20.3625 0.390962 19.5445 0.839573 18.7792C1.28818 18.0139 1.90832 17.4334 2.69999 17.0375C4.04582 16.3514 5.56318 15.7709 7.25207 15.2959C8.94096 14.8209 10.8014 14.5834 12.8333 14.5834H13.3875C13.5458 14.5834 13.7042 14.6098 13.8625 14.6625C13.0972 16.5625 12.7805 18.4493 12.9125 20.323C13.0444 22.1966 13.6778 23.9778 14.8125 25.6667H0.166656ZM23.9167 22.5C24.7875 22.5 25.5332 22.1902 26.1539 21.5706C26.7746 20.951 27.0844 20.2053 27.0833 19.3334C27.0823 18.4615 26.7725 17.7163 26.1539 17.0977C25.5354 16.4792 24.7896 16.1688 23.9167 16.1667C23.0437 16.1646 22.2985 16.4749 21.681 17.0977C21.0635 17.7205 20.7532 18.4657 20.75 19.3334C20.7468 20.201 21.0572 20.9468 21.681 21.5706C22.3048 22.1945 23.05 22.5043 23.9167 22.5ZM12.8333 13C11.0917 13 9.60069 12.3799 8.36041 11.1396C7.12013 9.89935 6.49999 8.40837 6.49999 6.66671C6.49999 4.92504 7.12013 3.43407 8.36041 2.19379C9.60069 0.953513 11.0917 0.333374 12.8333 0.333374C14.575 0.333374 16.066 0.953513 17.3062 2.19379C18.5465 3.43407 19.1667 4.92504 19.1667 6.66671C19.1667 8.40837 18.5465 9.89935 17.3062 11.1396C16.066 12.3799 14.575 13 12.8333 13Z" fill="white"/>
</svg>
