<svg width="17" height="20" viewBox="0 0 17 20" fill="none" xmlns="http://www.w3.org/2000/svg">
<path fill-rule="evenodd" clip-rule="evenodd" d="M14.6447 4.22921L13.877 17.2788C13.8484 17.767 13.6343 18.2257 13.2786 18.5612C12.9228 18.8967 12.4522 19.0835 11.9633 19.0834H5.03642C4.54743 19.0835 4.07689 18.8967 3.72111 18.5612C3.36534 18.2257 3.15123 17.767 3.12263 17.2788L2.35692 4.22921H0.354004V3.27087C0.354004 3.14379 0.404487 3.02191 0.494349 2.93205C0.58421 2.84219 0.706088 2.79171 0.833171 2.79171H16.1665C16.2936 2.79171 16.4155 2.84219 16.5053 2.93205C16.5952 3.02191 16.6457 3.14379 16.6457 3.27087V4.22921H14.6447ZM6.58317 0.395874H10.4165C10.5436 0.395874 10.6655 0.446358 10.7553 0.536219C10.8452 0.62608 10.8957 0.747958 10.8957 0.875041V1.83337H6.104V0.875041C6.104 0.747958 6.15449 0.62608 6.24435 0.536219C6.33421 0.446358 6.45609 0.395874 6.58317 0.395874ZM5.62484 6.62504L6.104 15.25H7.5415L7.15817 6.62504H5.62484ZM9.93734 6.62504L9.45817 15.25H10.8957L11.3748 6.62504H9.93734Z" fill="#9D9D9D"/>
</svg>
