<svg width="36" height="36" viewBox="0 0 36 36" fill="none" xmlns="http://www.w3.org/2000/svg">
<path d="M21.1612 2.3625C20.232 -0.7875 15.768 -0.7875 14.8387 2.3625L14.6137 3.1275C14.4749 3.59909 14.2323 4.03362 13.9036 4.39923C13.575 4.76484 13.1687 5.05225 12.7145 5.24039C12.2603 5.42854 11.7698 5.51264 11.2789 5.48653C10.788 5.46042 10.3092 5.32476 9.8775 5.0895L9.18 4.707C6.29325 3.1365 3.1365 6.29325 4.70925 9.17775L5.0895 9.8775C6.093 11.7225 5.14125 14.0197 3.1275 14.6137L2.3625 14.8387C-0.7875 15.768 -0.7875 20.232 2.3625 21.1612L3.1275 21.3862C3.59909 21.5251 4.03362 21.7677 4.39923 22.0964C4.76484 22.425 5.05225 22.8313 5.24039 23.2855C5.42854 23.7397 5.51264 24.2302 5.48653 24.7211C5.46042 25.212 5.32476 25.6908 5.0895 26.1225L4.707 26.82C3.1365 29.7068 6.29325 32.8635 9.17775 31.2907L9.8775 30.9105C10.3092 30.6752 10.788 30.5396 11.2789 30.5135C11.7698 30.4874 12.2603 30.5715 12.7145 30.7596C13.1687 30.9477 13.575 31.2352 13.9036 31.6008C14.2323 31.9664 14.4749 32.4009 14.6137 32.8725L14.8387 33.6375C15.768 36.7875 20.232 36.7875 21.1612 33.6375L21.3862 32.8725C21.5251 32.4009 21.7677 31.9664 22.0964 31.6008C22.425 31.2352 22.8313 30.9477 23.2855 30.7596C23.7397 30.5715 24.2302 30.4874 24.7211 30.5135C25.212 30.5396 25.6908 30.6752 26.1225 30.9105L26.82 31.293C29.7068 32.8635 32.8635 29.7067 31.2907 26.8222L30.9105 26.1225C30.6752 25.6908 30.5396 25.212 30.5135 24.7211C30.4874 24.2302 30.5715 23.7397 30.7596 23.2855C30.9477 22.8313 31.2352 22.425 31.6008 22.0964C31.9664 21.7677 32.4009 21.5251 32.8725 21.3862L33.6375 21.1612C36.7875 20.232 36.7875 15.768 33.6375 14.8387L32.8725 14.6137C32.4009 14.4749 31.9664 14.2323 31.6008 13.9036C31.2352 13.575 30.9477 13.1687 30.7596 12.7145C30.5715 12.2603 30.4874 11.7698 30.5135 11.2789C30.5396 10.788 30.6752 10.3092 30.9105 9.8775L31.293 9.18C32.8635 6.29325 29.7067 3.1365 26.8222 4.70925L26.1225 5.0895C25.6908 5.32476 25.212 5.46042 24.7211 5.48653C24.2302 5.51264 23.7397 5.42854 23.2855 5.24039C22.8313 5.05225 22.425 4.76484 22.0964 4.39923C21.7677 4.03362 21.5251 3.59909 21.3862 3.1275L21.1612 2.3625ZM18 24.5925C16.2516 24.5925 14.5747 23.8979 13.3384 22.6616C12.1021 21.4253 11.4075 19.7484 11.4075 18C11.4075 16.2516 12.1021 14.5747 13.3384 13.3384C14.5747 12.1021 16.2516 11.4075 18 11.4075C19.7478 11.4075 21.4241 12.1018 22.66 13.3377C23.8959 14.5737 24.5903 16.2499 24.5903 17.9977C24.5903 19.7456 23.8959 21.4219 22.66 22.6578C21.4241 23.8937 19.7478 24.588 18 24.588V24.5925Z" fill="#F17046"/>
<path d="M17.3864 15.0696C16.6206 15.2791 16.1591 15.8674 16.1591 16.4221C16.1591 16.9768 16.6206 17.5651 17.3864 17.7737V15.0696ZM18.6137 19.1614V21.8646C19.3795 21.656 19.8409 21.0677 19.8409 20.513C19.8409 19.9583 19.3795 19.37 18.6137 19.1614Z" fill="#4D1B83"/>
<path fill-rule="evenodd" clip-rule="evenodd" d="M26.1818 18.4675C26.1818 22.9863 22.5188 26.6493 18 26.6493C13.4812 26.6493 9.81818 22.9863 9.81818 18.4675C9.81818 13.9487 13.4812 10.2857 18 10.2857C22.5188 10.2857 26.1818 13.9487 26.1818 18.4675ZM18 12.9448C18.1627 12.9448 18.3188 13.0094 18.4339 13.1245C18.549 13.2396 18.6136 13.3957 18.6136 13.5584V13.8178C19.9473 14.0567 21.0682 15.059 21.0682 16.4221C21.0682 16.5848 21.0035 16.7409 20.8884 16.856C20.7734 16.9711 20.6173 17.0357 20.4545 17.0357C20.2918 17.0357 20.1357 16.9711 20.0206 16.856C19.9056 16.7409 19.8409 16.5848 19.8409 16.4221C19.8409 15.8673 19.3794 15.2791 18.6136 15.0696V17.9087C19.9473 18.1476 21.0682 19.1499 21.0682 20.513C21.0682 21.8761 19.9473 22.8783 18.6136 23.1173V23.3766C18.6136 23.5394 18.549 23.6954 18.4339 23.8105C18.3188 23.9256 18.1627 23.9903 18 23.9903C17.8372 23.9903 17.6812 23.9256 17.5661 23.8105C17.451 23.6954 17.3864 23.5394 17.3864 23.3766V23.1173C16.0527 22.8783 14.9318 21.8761 14.9318 20.513C14.9318 20.3502 14.9965 20.1942 15.1115 20.0791C15.2266 19.964 15.3827 19.8993 15.5454 19.8993C15.7082 19.8993 15.8643 19.964 15.9794 20.0791C16.0944 20.1942 16.1591 20.3502 16.1591 20.513C16.1591 21.0677 16.6205 21.656 17.3864 21.8646V19.0263C16.0527 18.7874 14.9318 17.7852 14.9318 16.4221C14.9318 15.059 16.0527 14.0567 17.3864 13.8178V13.5584C17.3864 13.3957 17.451 13.2396 17.5661 13.1245C17.6812 13.0094 17.8372 12.9448 18 12.9448Z" fill="#4D1B83"/>
</svg>
