<svg width="31" height="32" viewBox="0 0 31 32" fill="none" xmlns="http://www.w3.org/2000/svg">
<path fill-rule="evenodd" clip-rule="evenodd" d="M15.5 0.583313C6.98536 0.583313 0.083313 7.48536 0.083313 16C0.083313 24.5146 6.98536 31.4166 15.5 31.4166C24.0146 31.4166 30.9166 24.5146 30.9166 16C30.9166 7.48536 24.0146 0.583313 15.5 0.583313ZM10.1041 12.1458C10.1041 11.4372 10.2437 10.7356 10.5149 10.0809C10.786 9.42626 11.1835 8.83143 11.6846 8.33038C12.1856 7.82933 12.7804 7.43188 13.4351 7.16071C14.0897 6.88955 14.7914 6.74998 15.5 6.74998C16.2086 6.74998 16.9102 6.88955 17.5649 7.16071C18.2195 7.43188 18.8144 7.82933 19.3154 8.33038C19.8165 8.83143 20.2139 9.42626 20.4851 10.0809C20.7562 10.7356 20.8958 11.4372 20.8958 12.1458C20.8958 13.5769 20.3273 14.9493 19.3154 15.9612C18.3035 16.9732 16.931 17.5416 15.5 17.5416C14.0689 17.5416 12.6965 16.9732 11.6846 15.9612C10.6726 14.9493 10.1041 13.5769 10.1041 12.1458ZM25.1477 23.6836C23.9933 25.1349 22.5261 26.3068 20.8556 27.1119C19.1851 27.917 17.3544 28.3345 15.5 28.3333C13.6456 28.3345 11.8149 27.917 10.1443 27.1119C8.47383 26.3068 7.00664 25.1349 5.85223 23.6836C8.35127 21.8907 11.7614 20.625 15.5 20.625C19.2385 20.625 22.6487 21.8907 25.1477 23.6836Z" fill="#4D1B83"/>
</svg>
