<svg width="39" height="39" viewBox="0 0 39 39" fill="none" xmlns="http://www.w3.org/2000/svg">
<path d="M32.9605 19.3499H26.1335C25.7279 19.3494 25.3325 19.4779 25.0046 19.7166C24.6766 19.9553 24.433 20.292 24.3087 20.6782C23.9828 21.6969 23.3412 22.5854 22.4768 23.2152C21.6123 23.8451 20.5699 24.1835 19.5004 24.1816C18.4308 24.1835 17.3884 23.8451 16.524 23.2152C15.6596 22.5854 15.018 21.6969 14.6921 20.6782C14.5672 20.2922 14.3233 19.9558 13.9953 19.7171C13.6673 19.4784 13.2721 19.3499 12.8665 19.3499H6.03953C5.53077 19.35 5.04288 19.5521 4.68313 19.9119C4.32338 20.2716 4.12123 20.7595 4.12112 21.2683V32.2093C4.12143 32.7179 4.32368 33.2056 4.6834 33.5652C5.04313 33.9248 5.53091 34.1268 6.03953 34.127H32.9605C33.4691 34.1268 33.9569 33.9248 34.3166 33.5652C34.6763 33.2056 34.8786 32.7179 34.8789 32.2093V21.2683C34.8789 20.2079 34.0209 19.3499 32.9605 19.3499Z" fill="white"/>
<path d="M19.0975 20.3724C19.1938 20.5074 19.3514 20.5881 19.5172 20.5881H19.5183C19.6852 20.5881 19.8405 20.5074 19.938 20.3705L25.2435 12.9086C25.2981 12.8312 25.3304 12.7404 25.337 12.6459C25.3436 12.5514 25.3242 12.457 25.281 12.3727C25.2376 12.2884 25.1718 12.2178 25.0908 12.1685C25.0098 12.1192 24.9167 12.0933 24.8219 12.0935H22.3263V5.39019C22.3263 5.10354 22.0951 4.87305 21.8104 4.87305H17.1904C16.9049 4.87305 16.6744 5.10354 16.6744 5.39019V12.0935H14.1769C14.0822 12.0936 13.9894 12.1198 13.9087 12.1692C13.8279 12.2185 13.7622 12.2891 13.7189 12.3733C13.6756 12.4575 13.6562 12.5519 13.663 12.6463C13.6698 12.7407 13.7024 12.8315 13.7572 12.9086L19.0975 20.3724Z" fill="white"/>
</svg>
