<svg width="31" height="32" viewBox="0 0 31 32" fill="none" xmlns="http://www.w3.org/2000/svg">
<path d="M15.5 0.96875C7.21186 0.96875 0.46875 7.71186 0.46875 16C0.46875 24.2881 7.21186 31.0312 15.5 31.0312C23.7881 31.0312 30.5312 24.2881 30.5312 16C30.5312 7.71186 23.7881 0.96875 15.5 0.96875ZM15.5 25.25C13.9896 25.25 12.7886 24.6097 12.6274 23.2569C12.6232 23.2165 12.6275 23.1756 12.6401 23.137C12.6527 23.0983 12.6733 23.0627 12.7006 23.0326C12.7279 23.0025 12.7612 22.9784 12.7984 22.962C12.8356 22.9456 12.8758 22.9373 12.9165 22.9375H18.0799C18.1209 22.9372 18.1616 22.9457 18.1991 22.9623C18.2367 22.9789 18.2702 23.0034 18.2976 23.034C18.3249 23.0647 18.3455 23.1008 18.3578 23.14C18.3701 23.1791 18.3739 23.2205 18.3689 23.2613C18.1847 24.5888 16.9945 25.25 15.5 25.25ZM22.582 21.7812H8.41797C7.56234 21.7812 7.11719 20.6973 7.60932 20.1191C8.78941 18.7215 9.62336 18.134 9.62336 14.2801C9.62336 10.7485 11.4835 9.49537 13.0198 8.884C13.1256 8.83994 13.2209 8.77422 13.2997 8.69108C13.3785 8.60794 13.439 8.50921 13.4773 8.40127C13.7439 7.51602 14.4984 6.75 15.5 6.75C16.5016 6.75 17.2546 7.51602 17.5234 8.40199C17.562 8.5099 17.6227 8.60856 17.7016 8.69169C17.7805 8.77481 17.8759 8.84055 17.9816 8.88473C19.5144 9.49465 21.3781 10.7499 21.3781 14.2808C21.3781 18.1347 22.2113 18.7222 23.3914 20.1199C23.8785 20.6973 23.4326 21.7812 22.582 21.7812Z" fill="#4D1B83"/>
</svg>
