<svg width="39" height="40" viewBox="0 0 39 40" fill="none" xmlns="http://www.w3.org/2000/svg">
<path d="M37.7716 1.12927C38.2407 1.47043 38.4326 1.92532 38.3473 2.49393L32.8886 35.2458C32.8176 35.658 32.5901 35.9779 32.2063 36.2053C32.0073 36.3191 31.787 36.3759 31.5453 36.3759C31.3889 36.3759 31.2184 36.3404 31.0336 36.2693L21.3743 32.3246L16.2142 38.6148C15.9583 38.9418 15.61 39.1052 15.1694 39.1052C14.9846 39.1052 14.8282 39.0768 14.7003 39.0199C14.4302 38.9204 14.2134 38.7534 14.0499 38.5189C13.8864 38.2843 13.8047 38.0249 13.8047 37.7406V30.2989L32.2276 7.71802L9.43352 27.4416L1.011 23.9873C0.485035 23.7883 0.200731 23.3974 0.158085 22.8146C0.129655 22.246 0.357098 21.8266 0.840416 21.5565L36.3216 1.08662C36.5348 0.958683 36.7623 0.894714 37.0039 0.894714C37.2882 0.894714 37.5441 0.972898 37.7716 1.12927Z" fill="white"/>
</svg>
